<svg width="24" height="27" viewBox="0 0 24 27" fill="none" xmlns="http://www.w3.org/2000/svg">
<g clip-path="url(#clip0_476_11)">
<path d="M22.21 3.54H17.65V2.73C17.65 1.22 16.42 0 14.92 0H8.11C6.6 0 5.38 1.23 5.38 2.73V3.54H0.81C0.36 3.54 0 3.9 0 4.35C0 4.8 0.36 5.16 0.81 5.16H1.7V22.35C1.7 24.58 3.51 26.39 5.74 26.39H17.29C19.52 26.39 21.33 24.58 21.33 22.35V5.17H22.22C22.67 5.17 23.03 4.8 23.03 4.36C23.03 3.92 22.67 3.55 22.22 3.55L22.21 3.54ZM19.7 22.36C19.7 23.69 18.62 24.77 17.29 24.77H5.74C4.41 24.77 3.33 23.69 3.33 22.36V5.17H19.69V22.36H19.7ZM7 2.73C7 2.12 7.49 1.63 8.1 1.63H14.91C15.52 1.63 16.01 2.12 16.01 2.73V3.54H7V2.73Z" fill="white"/>
<path d="M14.3799 9.62C13.9299 9.62 13.5699 9.99 13.5699 10.43V19.5C13.5699 19.95 13.9299 20.31 14.3799 20.31C14.8299 20.31 15.1899 19.95 15.1899 19.5V10.43C15.1899 9.98 14.8299 9.62 14.3799 9.62Z" fill="white"/>
<path d="M8.64997 9.62C8.19997 9.62 7.83997 9.99 7.83997 10.43V19.5C7.83997 19.95 8.19997 20.31 8.64997 20.31C9.09997 20.31 9.45997 19.95 9.45997 19.5V10.43C9.45997 9.98 9.09997 9.62 8.64997 9.62Z" fill="white"/>
</g>
<defs>
<clipPath id="clip0_476_11">
<rect width="23.03" height="26.4" fill="white"/>
</clipPath>
</defs>
</svg>
