<svg width="26" height="27" viewBox="0 0 26 27" fill="none" xmlns="http://www.w3.org/2000/svg">
<g clip-path="url(#clip0_476_16)">
<path d="M18.77 22.5C18.77 23.77 17.74 24.8 16.47 24.8H3.89C2.62 24.8 1.59 23.77 1.59 22.5V9.92003C1.59 8.65003 2.62 7.62003 3.89 7.62003H10.72L12.19 6.03003H3.89C1.74 6.03003 0 7.78003 0 9.92003V22.5C0 24.65 1.75 26.39 3.89 26.39H16.47C18.62 26.39 20.36 24.64 20.36 22.5V12.91L18.77 14.64V22.5Z" fill="white"/>
<path d="M25.3399 4.20003C25.3199 3.65003 25.0799 3.13003 24.6699 2.76003L22.2599 0.540029C22.2599 0.540029 22.1799 0.470029 22.1499 0.440029C22.1299 0.420029 22.1099 0.410029 22.0899 0.390029C21.9999 0.330029 21.9199 0.270029 21.8199 0.220029C21.7899 0.210029 21.7599 0.190029 21.7299 0.180029C21.7199 0.180029 21.7099 0.170029 21.6999 0.170029C21.6799 0.170029 21.6599 0.150029 21.6299 0.140029C21.6199 0.140029 21.6099 0.140029 21.5999 0.130029C21.5899 0.130029 21.5699 0.120029 21.5599 0.110029C21.4899 0.0800293 21.4099 0.0600293 21.3299 0.0400293C21.3099 0.0400293 21.2899 0.0400293 21.2699 0.0300293C21.2699 0.0300293 21.2499 0.0300293 21.2399 0.0300293C21.2299 0.0300293 21.2199 0.0300293 21.2099 0.0300293C21.1999 0.0300293 21.1899 0.0300293 21.1799 0.0300293C21.1799 0.0300293 21.1599 0.0300293 21.1499 0.0300293C21.1399 0.0300293 21.1299 0.0300293 21.1099 0.0300293C21.1099 0.0300293 21.0899 0.0300293 21.0799 0.0300293C21.0699 0.0300293 21.0499 0.0300293 21.0399 0.0300293H21.0199C21.0099 0.0300293 20.9899 0.0300293 20.9799 0.0300293C20.9799 0.0300293 20.9799 0.0300293 20.9699 0.0300293C20.9399 0.0300293 20.9099 0.0300293 20.8799 0.0300293C20.8799 0.0300293 20.8699 0.0300293 20.8599 0.0300293C20.8099 0.0300293 20.7599 0.0300293 20.7099 0.0300293C20.7099 0.0300293 20.7099 0.0300293 20.6999 0.0300293C20.6799 0.0300293 20.6599 0.0300293 20.6399 0.0300293H20.6199C20.5999 0.0300293 20.5899 0.0300293 20.5699 0.0300293C20.5699 0.0300293 20.5499 0.0300293 20.5399 0.0300293C20.5299 0.0300293 20.5099 0.0300293 20.4999 0.0300293C20.4899 0.0300293 20.4799 0.0300293 20.4699 0.0300293C20.4599 0.0300293 20.4399 0.0300293 20.4299 0.0300293C20.4199 0.0300293 20.4099 0.0300293 20.3999 0.0300293C20.3899 0.0300293 20.3699 0.0300293 20.3599 0.0400293C20.3599 0.0400293 20.3399 0.0400293 20.3299 0.0400293C20.3099 0.0400293 20.2799 0.0500293 20.2599 0.0600293C20.1899 0.0800293 20.1299 0.110029 20.0599 0.130029C20.0299 0.140029 19.9999 0.160029 19.9599 0.170029C19.8999 0.200029 19.8299 0.240029 19.7699 0.270029C19.7399 0.290029 19.6999 0.310029 19.6699 0.340029C19.6599 0.340029 19.6499 0.360029 19.6399 0.360029C19.6099 0.380029 19.5799 0.400029 19.5499 0.430029C19.5399 0.440029 19.5199 0.450029 19.5099 0.470029C19.4799 0.490029 19.4599 0.520029 19.4299 0.550029C19.4199 0.560029 19.3999 0.580029 19.3899 0.590029C19.3799 0.600029 19.3599 0.620029 19.3499 0.630029L17.1099 3.06003L14.4199 5.99003L12.9499 7.58003L9.90994 10.89C9.79994 11.01 9.72994 11.16 9.71994 11.32L9.24994 16.31C9.22994 16.54 9.31994 16.77 9.48994 16.93C9.55994 16.99 9.63994 17.04 9.71994 17.07C9.80994 17.1 9.89994 17.12 9.98994 17.12C10.0399 17.12 10.0799 17.12 10.1299 17.11L14.8899 16.22C15.0499 16.19 15.1899 16.11 15.2999 15.99L18.7999 12.19L20.3899 10.46L24.8199 5.65003C25.1999 5.24003 25.3899 4.71003 25.3699 4.16003L25.3399 4.20003ZM20.1199 8.57003L18.7699 10.04L14.3399 14.85L10.7999 15.51L11.1599 11.75L14.9599 7.62003L16.4299 6.03003L17.6899 4.66003L20.9599 7.67003L20.1299 8.57003H20.1199ZM23.6999 4.69003L21.9699 6.57003L18.6999 3.56003L20.4299 1.68003C20.4299 1.68003 20.4399 1.66003 20.4499 1.66003C20.5599 1.55003 20.7099 1.49003 20.8599 1.49003C20.9099 1.49003 20.9699 1.49003 21.0199 1.51003C21.0399 1.51003 21.0499 1.52003 21.0699 1.53003C21.0899 1.53003 21.0999 1.54003 21.1199 1.55003C21.1699 1.57003 21.2199 1.61003 21.2599 1.64003L23.6699 3.86003C23.7899 3.97003 23.8499 4.11003 23.8599 4.27003C23.8599 4.43003 23.8099 4.58003 23.7099 4.69003H23.6999Z" fill="white"/>
</g>
<defs>
<clipPath id="clip0_476_16">
<rect width="25.34" height="26.39" fill="white"/>
</clipPath>
</defs>
</svg>
