<svg width="165" height="80" viewBox="0 0 165 80" fill="none" xmlns="http://www.w3.org/2000/svg">
<path d="M1.44226 58.5329C5.01042 69.0719 14.9059 77.0675 27.0935 78.8507L33.9257 51.9775H23.6413L29.7806 29.445C16.2228 34.6773 6.0075 44.9848 1.44226 58.5329Z" fill="#93AA24"/>
<path d="M29.7838 29.445L32.2169 20.5406C27.2754 20.5406 22.6192 21.5836 18.4334 23.3897C18.0603 22.6152 17.6934 21.7151 17.3799 20.7778V20.7864C14.6928 14.0566 14.6991 5.34082 20.0544 1.91165C16.1821 3.26617 12.3694 5.52085 9.58512 9.27579C4.54015 16.0741 8.94862 25.35 10.5414 28.2191C4.0761 33.5943 0 41.3013 0 49.9C0 52.9091 0.526758 55.7981 1.44231 58.5329C6.00755 44.982 16.2229 34.6773 29.7838 29.445Z" fill="#A4C417"/>
<path d="M61.1384 37.0778C59.3293 33.7287 56.8773 30.7196 53.883 28.2192C55.4758 25.3529 59.8842 16.0742 54.833 9.27872C48.8443 1.20589 38.0896 -3.05176e-05 32.2138 -3.05176e-05C30.0879 -3.05176e-05 27.3287 0.159997 24.3845 0.742956C23.9957 0.885837 17.8032 3.30054 20.0544 11.602C23.8577 9.04725 29.0344 8.56717 32.2169 8.56717C36.2303 8.56717 43.4983 9.28158 47.0602 14.0824C48.6812 16.2714 47.3173 20.6321 45.9941 23.3869L38.9958 43.1446H49.6407L37.7165 62.9966C49.186 57.9357 58.0249 48.3541 61.1447 37.075L61.1384 37.0778Z" fill="#111917"/>
<path d="M61.1385 37.0778C58.0218 48.3569 49.1798 57.9386 37.7103 62.9995L28.1001 78.9908C29.4515 79.148 30.8154 79.2566 32.2169 79.2566C50.0044 79.2566 64.4244 66.1171 64.4244 49.9029C64.4244 45.2935 63.2173 40.9528 61.1385 37.0807V37.0778Z" fill="black"/>
<path d="M79.3496 26.6094V65H70.0947V26.6094H79.3496ZM94.2734 42.5879V49.707H76.7129V42.5879H94.2734ZM95.7764 26.6094V33.7549H76.7129V26.6094H95.7764ZM147.219 34.6777L137.858 65H127.918L142.024 26.6094H148.326L147.219 34.6777ZM154.971 65L145.584 34.6777L144.371 26.6094H150.752L164.938 65H154.971ZM154.602 50.6826V57.8281H134.905V50.6826H154.602Z" fill="black"/>
<path d="M126.415 49.9971V56.8525H98.7822L98.2549 51.4209L113.68 26.6094H120.693L113.073 39.0811L106.745 49.9971H126.415ZM122.539 26.6094V65H113.653V26.6094H122.539Z" fill="#A4C417"/>
</svg>
