<svg width="121" height="58" viewBox="0 0 121 58" fill="none" xmlns="http://www.w3.org/2000/svg">
<path d="M1.05005 42.63C3.65005 50.31 10.86 56.13 19.73 57.43L24.71 37.86H17.22L21.6901 21.45C11.8201 25.26 4.38005 32.77 1.05005 42.63Z" fill="#93AA24"/>
<path d="M21.69 21.44L23.46 14.95C19.86 14.95 16.47 15.71 13.42 17.03C13.15 16.47 12.88 15.81 12.65 15.13C10.69 10.23 10.7 3.89 14.6 1.39C11.78 2.38 9 4.02 6.98 6.75C3.31 11.7 6.52 18.46 7.68 20.55C2.97 24.47 0 30.08 0 36.34C0 38.53 0.38 40.64 1.05 42.63C4.37 32.76 11.81 25.26 21.69 21.45V21.44Z" fill="#A4C417"/>
<path d="M44.53 27C43.21 24.56 41.43 22.37 39.25 20.55C40.41 18.46 43.62 11.7 39.94 6.76C35.57 0.88 27.74 0 23.46 0C21.91 0 19.9 0.12 17.76 0.54C17.48 0.64 12.97 2.4 14.61 8.45C17.38 6.59 21.15 6.24 23.47 6.24C26.39 6.24 31.69 6.76 34.28 10.26C35.46 11.85 34.47 15.03 33.5 17.04L28.4 31.43H36.15L27.47 45.89C35.82 42.2 42.26 35.23 44.53 27.01V27Z" fill="white"/>
<path d="M44.53 27C42.26 35.21 35.82 42.19 27.47 45.88L20.47 57.53C21.45 57.64 22.45 57.72 23.47 57.72C36.42 57.72 46.93 48.15 46.93 36.34C46.93 32.98 46.05 29.82 44.54 27H44.53Z" fill="#C3C2C4"/>
<path d="M57.7901 19.38V47.34H51.05V19.38H57.7901ZM68.6601 31.02V36.2H55.87V31.02H68.6601ZM69.75 19.38V24.58H55.87V19.38H69.75ZM107.22 25.26L100.4 47.34H93.1601L103.43 19.38H108.02L107.21 25.26H107.22ZM112.87 47.34L106.03 25.26L105.15 19.38H109.8L120.13 47.34H112.87ZM112.6 36.91V42.11H98.25V36.91H112.6Z" fill="white"/>
<path d="M92.0701 36.41V41.4H71.9401L71.5601 37.44L82.7901 19.37H87.9001L82.3501 28.45L77.7401 36.4H92.0701V36.41ZM89.2501 19.38V47.34H82.7801V19.38H89.2501Z" fill="#A4C417"/>
</svg>
