<svg width="33" height="31" viewBox="0 0 33 31" fill="none" xmlns="http://www.w3.org/2000/svg">
<path d="M26.0766 31H6.7337C3.45837 31 0.785583 28.3736 0.785583 25.1552V6.14835C0.785583 2.92994 3.45837 0.303589 6.7337 0.303589H26.0766C29.352 0.303589 32.0248 2.92994 32.0248 6.14835V25.1552C32.0248 28.3736 29.352 31 26.0766 31ZM6.71825 0.895655C3.76736 0.895655 1.37267 3.24874 1.37267 6.14835V25.1552C1.37267 28.0548 3.76736 30.4079 6.71825 30.4079H26.0612C29.0121 30.4079 31.4068 28.0548 31.4068 25.1552V6.14835C31.4068 3.24874 29.0121 0.895655 26.0612 0.895655H6.71825Z" fill="white"/>
<path fill-rule="evenodd" clip-rule="evenodd" d="M14.1804 26.0812H18.29V16.76H21.3336L21.9361 12.995H18.29V10.141C18.29 9.07828 19.3251 8.48621 20.2985 8.48621H22.0752V5.35889L18.8925 5.22226C15.849 5.04008 14.1649 7.37799 14.1649 10.1865V12.995H10.7042V16.76H14.1649V26.0812H14.1804Z" fill="white"/>
</svg>
