<svg width="45" height="34" viewBox="0 0 45 34" fill="none" xmlns="http://www.w3.org/2000/svg">
<path d="M1.77632 3.56643H43.2237C44.2042 3.56643 45 2.76755 45 1.78322C45 0.798881 44.2042 0 43.2237 0H1.77632C0.79579 0 0 0.798881 0 1.78322C0 2.76755 0.79579 3.56643 1.77632 3.56643Z" fill="#A4C417"/>
<path d="M43.2237 15.2168H1.77632C0.79579 15.2168 0 16.0157 0 17C0 17.9843 0.79579 18.7832 1.77632 18.7832H43.2237C44.2042 18.7832 45 17.9843 45 17C45 16.0157 44.2042 15.2168 43.2237 15.2168Z" fill="#A4C417"/>
<path d="M43.2237 30.4336H1.77632C0.79579 30.4336 0 31.2324 0 32.2168C0 33.2011 0.79579 34 1.77632 34H43.2237C44.2042 34 45 33.2011 45 32.2168C45 31.2324 44.2042 30.4336 43.2237 30.4336Z" fill="#A4C417"/>
</svg>
