<svg width="32" height="31" viewBox="0 0 32 31" fill="none" xmlns="http://www.w3.org/2000/svg">
<path d="M25.2911 31H5.94811C2.67279 31 0 28.3736 0 25.1552V6.14835C0 2.92994 2.67279 0.303589 5.94811 0.303589H25.2911C28.5664 0.303589 31.2392 2.92994 31.2392 6.14835V25.1552C31.2392 28.3736 28.5664 31 25.2911 31ZM5.94811 0.895655C2.99723 0.895655 0.602536 3.24874 0.602536 6.14835V25.1552C0.602536 28.0548 2.99723 30.4079 5.94811 30.4079H25.2911C28.2419 30.4079 30.6366 28.0548 30.6366 25.1552V6.14835C30.6366 3.24874 28.2419 0.895655 25.2911 0.895655H5.94811Z" fill="white"/>
<path fill-rule="evenodd" clip-rule="evenodd" d="M11.1855 6.20911H20.0536C22.8964 6.20911 25.2447 8.51665 25.2447 11.31V19.9784C25.2447 22.7718 22.8964 25.0793 20.0536 25.0793H11.1855C8.34279 25.0793 5.99445 22.7718 5.99445 19.9784V11.31C5.99445 8.51665 8.34279 6.20911 11.1855 6.20911ZM20.7952 9.50343C21.3977 9.50343 21.8921 10.0044 21.8921 10.5813C21.8921 11.1734 21.3823 11.6592 20.7952 11.6592C20.1463 11.6592 19.6983 11.1582 19.6983 10.5813C19.6983 9.98922 20.1618 9.50343 20.7952 9.50343ZM15.6041 10.5054H15.6505C18.4932 10.5054 20.8879 12.8585 20.8879 15.6518C20.8879 18.4907 18.4932 20.7982 15.6505 20.7982H15.6041C12.7614 20.7982 10.413 18.4907 10.413 15.6518C10.413 12.8585 12.7614 10.5054 15.6041 10.5054ZM15.6041 12.2664H15.6505C17.5353 12.2664 19.0957 13.7997 19.0957 15.6518C19.0957 17.5495 17.5353 19.0828 15.6505 19.0828H15.6041C13.7193 19.0828 12.1589 17.5495 12.1589 15.6518C12.1589 13.7997 13.7193 12.2664 15.6041 12.2664ZM11.2319 7.83349H20.0073C21.9848 7.83349 23.5916 9.41234 23.5916 11.3555V19.9329C23.5916 21.8761 21.9848 23.4549 20.0073 23.4549H11.2319C9.25432 23.4549 7.64756 21.8761 7.64756 19.9329V11.3555C7.64756 9.41234 9.25432 7.83349 11.2319 7.83349Z" fill="white"/>
</svg>
