<svg width="32" height="31" viewBox="0 0 32 31" fill="none" xmlns="http://www.w3.org/2000/svg">
<path d="M26.0519 30.6964H6.70892C3.4336 30.6964 0.760803 28.07 0.760803 24.8516V5.84476C0.760803 2.62635 3.4336 0 6.70892 0H26.0519C29.3272 0 32 2.62635 32 5.84476V24.8516C32 28.07 29.3272 30.6964 26.0519 30.6964ZM6.69347 0.592067C3.74258 0.592067 1.34789 2.94515 1.34789 5.84476V24.8516C1.34789 27.7512 3.74258 30.1043 6.69347 30.1043H26.0364C28.9873 30.1043 31.382 27.7512 31.382 24.8516V5.84476C31.382 2.94515 28.9873 0.592067 26.0364 0.592067H6.69347Z" fill="white"/>
<path d="M16.3804 5.95105C11.0966 5.95105 6.81708 10.1562 6.81708 15.3482C6.81708 17.1244 7.31147 18.7792 8.19209 20.2062L7.00247 24.7302L11.761 23.5916C13.136 24.3355 14.7118 24.7605 16.3804 24.7605C21.6642 24.7605 25.9437 20.5554 25.9437 15.3634C25.9437 10.1714 21.6642 5.96623 16.3804 5.96623V5.95105ZM16.3804 23.1817C14.7582 23.1817 13.2596 22.7111 11.9927 21.8913L9.19632 22.5896L9.92245 19.9481C8.96458 18.6577 8.40839 17.0789 8.40839 15.3634C8.40839 11.0519 11.9773 7.54507 16.365 7.54507C20.7527 7.54507 24.3215 11.0519 24.3215 15.3634C24.3215 19.6748 20.7527 23.1817 16.365 23.1817H16.3804Z" fill="white"/>
<path d="M20.4282 17.2458C20.2892 17.1851 20.1501 17.1244 20.042 17.0636C19.7175 16.8967 19.3931 16.7297 19.0687 16.5627C18.976 16.5171 18.8678 16.4564 18.7597 16.4564C18.3271 16.4564 18.1262 17.0637 17.8481 17.2914C17.74 17.3825 17.6009 17.4735 17.4464 17.4735C17.3229 17.4735 17.1993 17.428 17.0911 17.3825C16.5349 17.1244 16.0096 16.7752 15.5616 16.3501C15.2063 16.0161 14.8973 15.6518 14.6037 15.2723C14.4647 15.0901 14.3411 14.9079 14.3102 14.6954C14.2484 14.164 15.0209 13.9667 15.0518 13.4353C15.0518 13.238 14.9591 13.0558 14.8818 12.8736C14.7428 12.57 14.6192 12.2512 14.511 11.9324C14.3256 11.3403 13.9703 11.0823 13.3214 11.2341C12.518 11.4162 12.0854 12.5245 12.07 13.238C12.0236 14.3007 12.7807 15.3482 12.8734 15.5C13.3677 16.1983 13.8467 16.8967 14.4647 17.5039C15.4843 18.4907 16.8903 19.2953 18.3116 19.523C18.5897 19.5685 18.8678 19.5837 19.1459 19.5534C19.6249 19.4926 20.0574 19.2497 20.3664 18.8854C20.6445 18.5666 21.0153 17.9442 20.7527 17.5343C20.6754 17.4128 20.5364 17.3369 20.3973 17.261L20.4282 17.2458Z" fill="white"/>
</svg>
